<svg width="78" height="61" viewBox="0 0 78 61" fill="none" xmlns="http://www.w3.org/2000/svg">
<path d="M36.9609 13.3041C36.5048 13.6157 36.3877 14.2379 36.6992 14.6939C37.0108 15.15 37.633 15.2671 38.089 14.9556L36.9609 13.3041ZM50.0357 9.84145L50.0962 10.8396L50.0357 9.84145ZM62.9679 12.5859L63.4283 11.6982L62.9679 12.5859ZM76.4781 34.3344L75.4783 34.3567L76.4781 34.3344ZM73.264 47.234L72.3918 46.7449L73.264 47.234ZM63.9518 56.6712L64.4517 57.5373L64.4517 57.5373L63.9518 56.6712ZM51.155 59.997L51.1705 58.9972L51.155 59.997ZM38.992 55.4278C38.5224 55.1371 37.906 55.2822 37.6154 55.7517C37.3247 56.2213 37.4697 56.8377 37.9393 57.1284L38.992 55.4278ZM38.089 14.9556C41.6514 12.522 45.7994 11.1004 50.0962 10.8396L49.9751 8.84329C45.3168 9.12596 40.821 10.6672 36.9609 13.3041L38.089 14.9556ZM50.0962 10.8396C54.3931 10.5789 58.6806 11.4887 62.5074 13.4736L63.4283 11.6982C59.2809 9.54701 54.6333 8.56061 49.9751 8.84329L50.0962 10.8396ZM62.5074 13.4736C66.3343 15.4586 69.5594 18.4455 71.8423 22.1206L73.5412 21.0652C71.069 17.0855 67.5757 13.8494 63.4283 11.6982L62.5074 13.4736ZM71.8423 22.1206C74.1253 25.7957 75.3816 30.0228 75.4783 34.3567L77.4778 34.3121C77.3731 29.6211 76.0134 25.0449 73.5412 21.0652L71.8423 22.1206ZM75.4783 34.3567C75.5751 38.6906 74.5086 42.9702 72.3918 46.7449L74.1363 47.7232C76.4283 43.636 77.5825 39.003 77.4778 34.3121L75.4783 34.3567ZM72.3918 46.7449C70.2751 50.5195 67.1864 53.6492 63.4518 55.8051L64.4517 57.5373C68.4988 55.201 71.8442 51.8104 74.1363 47.7232L72.3918 46.7449ZM63.4518 55.8051C59.7173 57.961 55.4746 59.0636 51.1705 58.9972L51.1396 60.9969C55.8058 61.0689 60.4046 59.8736 64.4517 57.5373L63.4518 55.8051ZM51.1705 58.9972C46.8663 58.9308 42.6592 57.6979 38.992 55.4278L37.9393 57.1284C41.9133 59.5883 46.4734 60.925 51.1396 60.9969L51.1705 58.9972Z" fill="white"/>
<ellipse cx="50.5815" cy="34.1967" rx="2.18308" ry="2.19565" fill="white"/>
<path d="M51.5254 34.2858L69.1371 24.3164" stroke="white" stroke-width="2" stroke-linecap="round"/>
<path d="M50.418 32.449V21.988" stroke="white" stroke-width="2" stroke-linecap="round"/>
<line x1="50.6738" y1="15.6315" x2="50.6738" y2="13.2402" stroke="white" stroke-width="2" stroke-linecap="round"/>
<line x1="50.6738" y1="55.1533" x2="50.6738" y2="52.762" stroke="white" stroke-width="2" stroke-linecap="round"/>
<line x1="1" y1="-1" x2="3.36617" y2="-1" transform="matrix(-1 0 0 1 72.4121 35.2946)" stroke="white" stroke-width="2" stroke-linecap="round"/>
<rect x="48.2637" y="4.67346" width="5.30489" height="4.12245" stroke="white" stroke-width="2"/>
<mask id="path-9-inside-1" fill="white">
<rect x="43.6113" width="14.6098" height="6.12245" rx="1.5"/>
</mask>
<rect x="43.6113" width="14.6098" height="6.12245" rx="1.5" stroke="white" stroke-width="4" mask="url(#path-9-inside-1)"/>
<path d="M36.6175 26.3431H14.5684" stroke="white" stroke-width="2" stroke-linecap="round"/>
<path d="M35.7695 43.2751H14.5684" stroke="white" stroke-width="2" stroke-linecap="round"/>
<path d="M39.162 35.5903H1" stroke="white" stroke-width="2" stroke-linecap="round"/>
</svg>
