<svg width="63" height="61" viewBox="0 0 63 61" fill="none" xmlns="http://www.w3.org/2000/svg">
<path d="M58.8861 19.728V22.8357C58.8861 23.9402 57.9907 24.8357 56.8861 24.8357H4.70215C3.59758 24.8357 2.70215 23.9402 2.70215 22.8357V20.1537" stroke="white" stroke-width="2"/>
<path d="M3.21973 56.6428H58.1483C58.7006 56.6428 59.1483 57.0905 59.1483 57.6428V58.937C59.1483 59.4889 58.7013 59.9364 58.1494 59.937L3.22083 59.9978C2.66812 59.9984 2.21973 59.5505 2.21973 58.9978V57.6428C2.21973 57.0905 2.66744 56.6428 3.21973 56.6428Z" stroke="white" stroke-width="2"/>
<path d="M15.0291 56.6674V53.8503C15.0291 53.2981 14.5814 52.8503 14.0291 52.8503H6.40137C5.84908 52.8503 5.40137 53.2981 5.40137 53.8503V56.7144" stroke="white" stroke-width="2"/>
<path d="M15.0291 24.8828V27.6998C15.0291 28.2521 14.5814 28.6998 14.0291 28.6998H6.40137C5.84908 28.6998 5.40137 28.2521 5.40137 27.6998V24.8357" stroke="white" stroke-width="2"/>
<path d="M8.02734 52.3676V29.1831" stroke="white" stroke-width="2"/>
<path d="M12.4033 28.6997V51.8842" stroke="white" stroke-width="2"/>
<path d="M56.3327 56.6674V53.8503C56.3327 53.2981 55.885 52.8503 55.3327 52.8503H47.9688C47.4165 52.8503 46.9688 53.2981 46.9688 53.8503V56.7144" stroke="white" stroke-width="2"/>
<path d="M56.3327 24.8828V27.6998C56.3327 28.2521 55.885 28.6998 55.3327 28.6998H47.9688C47.4165 28.6998 46.9688 28.2521 46.9688 27.6998V24.8357" stroke="white" stroke-width="2"/>
<path d="M49.5225 52.3676V29.1831" stroke="white" stroke-width="2"/>
<path d="M53.7793 28.6997V51.8842" stroke="white" stroke-width="2"/>
<path d="M61.0147 18.7218V18.9536C61.0147 19.6164 60.4774 20.1536 59.8147 20.1536H56.3327H31.2202H6.10763H2.2C1.53726 20.1536 1 19.6164 1 18.9536V18.7267C1 18.2935 1.23353 17.8939 1.61099 17.6812L30.6269 1.3342C30.9949 1.12692 31.4447 1.12829 31.8113 1.33781L60.41 17.6799C60.7839 17.8936 61.0147 18.2912 61.0147 18.7218Z" stroke="white" stroke-width="2"/>
<path d="M32.1161 44.9998H32.2161V44.8998V43.8954V43.7954H32.1161H28.8999V42.57L32.1972 42.57L32.1976 42.57C33.6197 42.5635 34.7288 42.1988 35.5098 41.4617L35.5101 41.4614C36.2915 40.7174 36.6766 39.6777 36.6766 38.3565C36.6766 37.0592 36.2786 36.0233 35.4742 35.2612C34.6758 34.4926 33.5699 34.1142 32.1701 34.1142H27.7006H27.6006V34.2142V41.3751H25.8623H25.7623V41.4751V42.47V42.57H25.8623H27.6006V43.7954H25.8623H25.7623V43.8954V44.8998V44.9998H25.8623H27.6006V48.1428V48.2428H27.7006H28.7999H28.8999V48.1428V44.9998H32.1161ZM34.5503 36.1694L34.5507 36.1697C35.0928 36.7085 35.3682 37.4398 35.3682 38.3756C35.3682 39.3438 35.0865 40.0798 34.5348 40.5985C33.982 41.1118 33.1985 41.3751 32.1701 41.3751H28.8999V35.3187H32.304C33.2695 35.3439 34.0142 35.6308 34.5503 36.1694Z" fill="white" stroke="white" stroke-width="0.2"/>
</svg>
