<svg width="60" height="50" viewBox="0 0 60 50" fill="none" xmlns="http://www.w3.org/2000/svg">
<path fill-rule="evenodd" clip-rule="evenodd" d="M3.91305 35.559V43.9077C3.91305 44.9132 4.72999 45.7311 5.73308 45.7311H54.2669C55.2711 45.7311 56.0869 44.9132 56.0869 43.9077V12.6492C56.0869 11.6437 55.2711 10.8258 54.2669 10.8258H27.0423V12.3887H54.2669C54.4104 12.3887 54.5269 12.5054 54.5269 12.6492V43.9077C54.5269 44.0515 54.4104 44.1682 54.2669 44.1682H5.73308C5.58956 44.1682 5.47308 44.0515 5.47308 43.9077V35.559H3.91305ZM60 48.5855V47.1263H35.3589C35.2367 47.5337 34.8644 47.8317 34.4193 47.8317H25.5812C25.1356 47.8317 24.7633 47.5332 24.6416 47.1263H0V48.5855C0 48.9721 0.313044 49.2857 0.69889 49.2857H59.3011C59.687 49.2857 60 48.9721 60 48.5855Z" fill="white"/>
<path d="M21.7689 31.5928H1.40568C0.645873 31.5928 0 31.0057 0 30.2352V1.35766C0 0.587116 0.607896 0 1.40568 0H21.807C22.5668 0 23.2127 0.587116 23.2127 1.35766V30.2719C23.1746 30.9691 22.5288 31.5928 21.7689 31.5928ZM1.40568 1.1008C1.25372 1.1008 1.13973 1.2109 1.13973 1.35766V30.2719C1.13973 30.4187 1.25372 30.5287 1.40568 30.5287H21.807C21.9589 30.5287 22.0729 30.4187 22.0729 30.2719V1.35766C22.0349 1.2109 21.921 1.1008 21.7689 1.1008H1.40568Z" fill="white"/>
<path d="M18.806 12.651C18.768 12.6143 18.73 12.6143 18.692 12.6143C19.0339 11.7704 18.9959 10.853 18.54 10.0825C18.4261 9.89905 18.2361 9.53208 17.7042 9.38531C17.5902 9.34865 17.5143 9.34865 17.4003 9.34865C17.1344 9.34865 16.9064 9.42203 16.6785 9.5688C16.5645 9.64218 16.4885 9.71556 16.4505 9.75223C16.2986 9.89905 16.1466 10.0091 16.0326 10.1559C15.7287 10.4127 15.3867 10.743 15.0448 11.0732L15.0069 11.0365C14.7029 10.6696 14.323 10.4494 13.8671 10.3393C13.9811 10.1559 14.0571 9.97243 14.095 9.82566C14.399 8.9083 14.0571 8.0277 13.2213 7.58735C13.1453 7.55068 13.0693 7.51397 12.9933 7.4773C12.9933 7.33048 12.9933 7.18372 12.9173 7.03695C12.7654 6.63332 12.4234 6.3765 11.9675 6.2664C11.8536 6.22974 11.7396 6.22974 11.6256 6.22974C11.5117 6.22974 11.3977 6.22974 11.2837 6.2664H11.2457C10.7898 6.3765 10.4479 6.63332 10.2959 7.00028C10.22 7.14705 10.22 7.29382 10.22 7.4773C10.144 7.51397 10.068 7.55068 9.992 7.58735C9.15619 8.06436 8.81429 8.90829 9.08024 9.86233C9.11821 10.0458 9.19422 10.1926 9.30815 10.376C8.85227 10.4861 8.47239 10.743 8.16842 11.0732C8.16842 11.0732 8.16842 11.1099 8.13044 11.1099C7.75051 10.7796 7.40861 10.4861 7.14267 10.1926C6.99071 10.0458 6.83875 9.93571 6.68679 9.78894C6.64881 9.75223 6.5728 9.67884 6.45882 9.60546C6.26888 9.45869 6.00294 9.38531 5.73699 9.38531C5.62301 9.38531 5.54706 9.38531 5.43307 9.42203C4.93921 9.53208 4.71125 9.93571 4.59726 10.1192C4.14138 10.8897 4.1034 11.8438 4.4453 12.651C4.40732 12.651 4.36929 12.6877 4.33132 12.6877C3.87544 12.9446 3.6855 13.3849 3.72347 14.0087C3.72347 14.1921 3.76145 14.3756 3.83746 14.5223C3.95144 14.8893 4.17936 15.2196 4.4453 15.4764C4.52131 15.5497 4.59726 15.6231 4.67327 15.6599C4.52131 15.9901 4.52131 16.357 4.71125 16.6873C4.74922 16.7606 4.82523 16.8707 4.86321 16.9441C4.97719 17.0909 5.12915 17.2377 5.28111 17.3844C5.62301 17.6413 6.04092 17.7881 6.45882 17.8614C6.49685 17.8614 6.53483 17.8614 6.53483 17.8614C6.61078 18.0449 6.72477 18.1917 6.87673 18.3017C7.14267 18.5219 7.48462 18.6687 7.75051 18.7054C7.75051 18.9622 7.82652 19.2191 7.97848 19.4393C8.35841 19.9162 8.89025 20.2465 9.42213 20.3199C9.49814 20.4666 9.5741 20.5767 9.68808 20.6868C10.7138 21.6408 11.0938 21.7876 11.5117 21.7876C11.9296 21.7876 12.3095 21.6408 13.3352 20.6868C13.4492 20.5767 13.5252 20.4666 13.6012 20.3199C14.1331 20.2098 14.6649 19.9162 15.0448 19.4393C15.1968 19.2191 15.3108 18.9622 15.2728 18.7054C15.5767 18.632 15.8807 18.5219 16.1466 18.3017C16.2986 18.1917 16.4125 18.0449 16.4885 17.8614C16.5265 17.8614 16.5645 17.8614 16.5645 17.8614C16.9824 17.8247 17.4003 17.6413 17.7422 17.3844C17.8942 17.2743 18.0461 17.1276 18.1601 16.9441C18.2361 16.8707 18.2741 16.7606 18.3121 16.6873C18.5021 16.3203 18.5021 15.9534 18.3501 15.6599C18.4261 15.5865 18.5021 15.5497 18.578 15.4764C18.844 15.2196 19.0719 14.8893 19.1859 14.5223C19.2239 14.3389 19.2619 14.1921 19.2998 14.0087C19.4518 13.3482 19.2619 12.9079 18.806 12.651ZM11.3597 7.33048C11.3977 7.29382 11.4737 7.29382 11.5117 7.2571C11.5496 7.2571 11.5496 7.2571 11.5877 7.2571C11.6256 7.2571 11.6256 7.2571 11.6636 7.2571C11.7016 7.2571 11.7776 7.29382 11.8156 7.33048C11.8536 7.3672 11.8536 7.3672 11.8536 7.40386L11.5877 7.8075L11.3597 7.40386C11.3217 7.3672 11.3597 7.33048 11.3597 7.33048ZM10.5619 8.468C10.6379 8.43128 10.7138 8.39461 10.7898 8.3579C10.8658 8.32123 10.9038 8.32123 10.9038 8.32123L10.9418 8.3579L11.5877 9.31193L12.2335 8.3579L12.2715 8.32123C12.2715 8.32123 12.3095 8.32123 12.3854 8.3579C12.4615 8.39461 12.5374 8.39461 12.6134 8.468C12.8794 8.61476 13.1833 8.90829 12.9933 9.45869C12.9173 9.67884 12.7654 9.97243 12.4994 10.3026C12.4994 10.3026 12.4994 10.3026 12.4615 10.3393H12.1955H11.5117H10.8278H10.5619C10.5619 10.3393 10.5619 10.3393 10.5239 10.3026C10.2579 9.97243 10.106 9.67884 10.03 9.45869C9.992 8.90829 10.2959 8.61476 10.5619 8.468ZM18.2741 13.8986C18.2741 13.9719 18.2361 14.082 18.2361 14.1554C18.1601 14.3389 18.0461 14.5223 17.9321 14.6324C17.7042 14.8526 17.3623 14.9994 17.0204 14.9994C16.6405 15.0727 16.3365 15.0727 15.9946 15.0727H15.9567C15.9186 15.0727 15.8807 15.0727 15.8427 15.0727C15.8046 15.0727 15.7287 15.0727 15.7287 15.1094C15.6907 15.1828 15.7667 15.2929 15.8046 15.3296C15.9566 15.4397 16.1846 15.5131 16.3365 15.6231C16.6785 15.77 17.0584 15.9167 17.3623 16.1001C17.4003 16.1369 17.4383 16.1369 17.4003 16.1735C17.3623 16.2102 17.3623 16.2469 17.3243 16.3203C17.2484 16.3937 17.2103 16.4671 17.1344 16.5405C16.9444 16.6873 16.7544 16.7606 16.5265 16.7973C16.4885 16.7973 16.4125 16.7973 16.3745 16.7973C16.0706 16.7973 15.7667 16.6873 15.4627 16.5405C15.2728 16.4671 15.0828 16.357 14.9309 16.2836C14.8929 16.2469 14.7789 16.1735 14.7029 16.1735C14.6649 16.1735 14.6649 16.1735 14.6269 16.2102C14.589 16.2836 14.589 16.3937 14.6649 16.4671C14.7789 16.6505 14.9688 16.834 15.1208 16.9808C15.2728 17.1643 15.3867 17.311 15.5388 17.4578C15.3488 17.6046 15.0448 17.678 14.7789 17.678C14.7409 17.678 14.6649 17.678 14.6269 17.678C14.323 17.6413 14.0571 17.4578 13.9051 17.2377C13.8291 17.1276 13.7911 17.0175 13.7152 16.9074C13.6392 16.7606 13.4872 16.6873 13.3352 16.6873C13.2592 16.6873 13.1833 16.7239 13.1073 16.7606C12.8034 16.9808 12.4994 17.311 12.4994 17.311C12.7654 17.5312 13.6771 18.4118 14.247 18.7788C13.9811 19.109 13.6771 19.2558 13.3732 19.2558C13.1073 19.2558 12.8034 19.109 12.4994 18.8521C12.3854 18.742 12.2715 18.632 12.1955 18.632C12.1575 18.632 12.1575 18.632 12.1195 18.6687C12.0436 18.742 12.1195 19.0356 12.1575 19.109C12.2335 19.2924 12.6134 19.8428 12.6514 19.8796C12.6514 19.8796 11.7776 20.6868 11.5877 20.6868C11.3977 20.6868 10.5239 19.8796 10.5239 19.8796C10.5619 19.8062 10.9418 19.2558 11.0178 19.109C11.0558 19.0356 11.1317 18.742 11.0558 18.6687C11.0178 18.632 11.0178 18.632 10.9798 18.632C10.8658 18.632 10.7898 18.742 10.6759 18.8521C10.3719 19.109 10.106 19.2558 9.80206 19.2558C9.49814 19.2558 9.19422 19.0723 8.92828 18.7788C9.49814 18.3751 10.4099 17.5312 10.6759 17.311C10.6759 17.311 10.334 16.9808 10.068 16.7606C9.992 16.7239 9.91605 16.6873 9.84004 16.6873C9.68808 16.6873 9.53612 16.7606 9.46016 16.9074C9.38416 17.0175 9.34618 17.1276 9.27017 17.2377C9.11821 17.4578 8.85227 17.6413 8.58632 17.6413C8.54835 17.6413 8.47239 17.6413 8.43436 17.6413C8.16842 17.6413 7.8645 17.5679 7.67456 17.4211C7.82652 17.2743 7.97848 17.0909 8.09247 16.9441C8.24443 16.7606 8.39639 16.6139 8.54835 16.4304C8.58632 16.357 8.62435 16.2469 8.58632 16.1735C8.58632 16.1369 8.54835 16.1369 8.51037 16.1369C8.43436 16.1369 8.35841 16.2102 8.2824 16.2469C8.09246 16.3203 7.90247 16.4304 7.71254 16.5038C7.40862 16.6505 7.14267 16.7606 6.80077 16.7606C6.76274 16.7606 6.68679 16.7606 6.64881 16.7606C6.42084 16.7239 6.23091 16.6505 6.04092 16.5038C5.96496 16.4304 5.88895 16.357 5.85098 16.2836C5.813 16.2469 5.77497 16.2102 5.77497 16.1369C5.73699 16.1001 5.77497 16.0635 5.813 16.0635C6.11692 15.88 6.49685 15.7332 6.83875 15.5865C7.02869 15.5131 7.21868 15.4397 7.40861 15.2929C7.48462 15.2562 7.56058 15.1461 7.48462 15.0727C7.44659 15.0727 7.40862 15.0727 7.33261 15.0727C7.29463 15.0727 7.21868 15.0727 7.21868 15.0727H7.18065C6.83875 15.0727 6.53483 15.0727 6.19288 15.0361C5.85098 15.0361 5.50908 14.8893 5.28111 14.6692C5.12915 14.5223 5.01517 14.3756 4.97719 14.1921C4.93921 14.1188 4.93921 14.0087 4.90118 13.9353C4.90118 13.8619 4.86321 13.6784 4.93921 13.6417H4.97719C5.05314 13.6417 5.12915 13.6417 5.16713 13.6784C5.28111 13.6784 5.35707 13.6784 5.47105 13.7151C5.69902 13.7151 5.92699 13.7518 6.1549 13.7885C6.38287 13.7885 6.61078 13.8252 6.83875 13.8252H6.87673C6.95273 13.8252 6.99071 13.8252 7.06672 13.7518C7.14267 13.6784 7.14267 13.605 7.06672 13.5684C6.72477 13.3849 6.38287 13.2381 6.07895 12.9812C5.43307 12.4308 5.16713 11.4034 5.62301 10.6696C5.62301 10.6329 5.69902 10.4861 5.73699 10.4861C5.73699 10.4861 5.73699 10.4861 5.77497 10.5228C5.813 10.5595 5.85098 10.5962 5.88896 10.6329C6.04092 10.743 6.19288 10.8897 6.30686 10.9998C7.10469 11.7337 7.90247 12.4308 8.70031 13.1647C8.73829 13.2014 8.81429 13.2748 8.85227 13.3115C8.51037 13.605 8.47239 14.1554 8.70031 14.5223C8.85227 14.7792 9.15619 14.8893 9.46016 14.8893C9.5741 14.8893 9.68808 14.8893 9.80206 14.8159C10.5619 14.5591 10.5999 13.4583 9.87802 13.1647C9.76409 13.128 9.68808 13.0913 9.5741 13.0913C9.49814 13.0913 9.42213 13.0913 9.46016 13.018C9.53612 12.8345 9.68808 12.651 9.80206 12.4676C9.6501 12.4308 9.49814 12.3942 9.30815 12.3942H9.27017C9.19422 12.3942 9.11821 12.3942 9.04226 12.4308C9.00423 12.4308 8.92828 12.4676 8.89025 12.5042C8.85227 12.5409 8.81429 12.5776 8.77631 12.5776C8.66233 11.9538 9.15619 11.4034 9.80206 11.4034C9.84004 11.4034 9.87802 11.4034 9.91605 11.4034C10.03 11.4034 10.182 11.4401 10.2959 11.4401C10.4859 11.4401 10.6379 11.4768 10.8278 11.5135C10.8658 11.5135 10.9038 11.5135 10.9798 11.5135C11.0938 11.5135 11.2457 11.5502 11.3597 11.5502C11.1317 11.9172 11.0938 12.3942 11.2837 12.7978C11.3597 12.9812 11.4737 13.1647 11.5496 13.3482C11.6256 13.1647 11.7396 12.9812 11.8156 12.7978C12.0056 12.3942 12.0056 11.9172 11.7396 11.5502C11.8536 11.5502 12.0056 11.5135 12.1195 11.5135C12.1575 11.5135 12.2335 11.5135 12.2715 11.5135C12.4615 11.5135 12.6134 11.4768 12.8034 11.4401C12.9173 11.4401 13.0693 11.4034 13.1833 11.4034C13.2213 11.4034 13.2592 11.4034 13.2973 11.4034C13.9431 11.4034 14.437 11.9538 14.323 12.5776C14.285 12.5776 14.247 12.5042 14.209 12.5042C14.1711 12.4676 14.095 12.4676 14.0571 12.4308C13.9811 12.3942 13.9051 12.3942 13.8291 12.3942H13.7911C13.6392 12.3942 13.4492 12.4308 13.2973 12.4676C13.4112 12.651 13.5632 12.8345 13.6392 13.018C13.6771 13.128 13.6392 13.0913 13.5252 13.0913C13.4112 13.0913 13.3352 13.128 13.2213 13.1647C12.4994 13.4583 12.5374 14.5958 13.2973 14.8159C13.4112 14.8526 13.5252 14.8893 13.6392 14.8893C13.9431 14.8893 14.209 14.7792 14.399 14.5223C14.6269 14.1554 14.589 13.605 14.247 13.3115C14.285 13.2748 14.361 13.2014 14.399 13.1647C15.1968 12.4308 15.9946 11.697 16.7924 10.9998C16.9444 10.8897 17.0964 10.743 17.2103 10.6329C17.2484 10.5962 17.2863 10.5595 17.3243 10.5228C17.3243 10.5228 17.3243 10.4861 17.3623 10.4861C17.4003 10.4861 17.4763 10.6329 17.4763 10.6696C17.9321 11.4034 17.6663 12.4308 17.0204 12.9812C16.7165 13.2381 16.3745 13.3482 16.0326 13.5684C15.9567 13.605 15.9946 13.6784 16.0326 13.7518C16.0706 13.7885 16.1466 13.8252 16.2225 13.8252H16.2606C16.4885 13.8252 16.7165 13.7885 16.9444 13.7885C17.1723 13.7518 17.4003 13.7518 17.6282 13.7151C17.7422 13.7151 17.8182 13.7151 17.9321 13.6784C17.9702 13.6784 18.0842 13.6417 18.1221 13.6417C18.1601 13.6417 18.1601 13.6417 18.1601 13.6417C18.3121 13.6417 18.2741 13.8252 18.2741 13.8986Z" fill="white"/>
<path d="M18.2733 26.9049H4.90037C4.73188 26.9049 4.59277 26.8089 4.59277 26.7189V26.2442C4.59277 26.1542 4.73188 26.0582 4.90037 26.0582H18.2733C18.4417 26.0582 18.5809 26.1542 18.5809 26.2442V26.7189C18.5809 26.8089 18.4417 26.9049 18.2733 26.9049Z" fill="white" stroke="white"/>
</svg>
