<svg width="55" height="60" viewBox="0 0 55 60" fill="none" xmlns="http://www.w3.org/2000/svg">
<path d="M28.7957 40.3449H13.8742V37.1091L20.7475 29.8726C22.4414 27.9409 23.2883 26.4063 23.2883 25.2689C23.2883 24.3472 23.0876 23.6461 22.6861 23.1656C22.2847 22.6851 21.7021 22.4449 20.9384 22.4449C20.1845 22.4449 19.5726 22.7685 19.1026 23.4156C18.6326 24.053 18.3977 24.8521 18.3977 25.8131H13.4336C13.4336 24.4992 13.7616 23.2882 14.4176 22.1801C15.0736 21.0623 15.9842 20.1896 17.1493 19.5621C18.3144 18.9345 19.6166 18.6207 21.0559 18.6207C23.3666 18.6207 25.1437 19.1551 26.3871 20.2239C27.6404 21.2927 28.267 22.8273 28.267 24.8276C28.267 25.6709 28.1104 26.4946 27.7971 27.2986C27.4837 28.0929 26.9942 28.9313 26.3284 29.8138C25.6724 30.6864 24.6101 31.8582 23.1414 33.329L20.3803 36.5207H28.7957V40.3449Z" fill="white"/>
<path d="M44.3635 31.9759H46.5371V35.8H44.3635V40.3449H39.4141V35.8H31.1456L30.8519 32.7701L39.4141 18.9737V18.9296H44.3635V31.9759ZM35.5662 31.9759H39.4141V25.3866L39.1057 25.8866L35.5662 31.9759Z" fill="white"/>
<path d="M46.5372 12.4138L53.7786 13.4483L54.2958 6.20691L52.3116 5.59664L52.0171 9.63949C46.3759 3.53625 38.4325 0 30 0C13.4578 0 0 13.458 0 30C0 46.542 13.458 60 30.0001 60C40.0029 60 49.3179 55.0243 54.9176 46.69L53.2613 45.5173C48.3188 52.8738 38.8249 57.9311 30.0001 57.9311C15.4049 57.9313 2.05432 44.5951 2.05432 30C2.05432 15.4049 15.4048 2.06897 30 2.06897C37.5059 2.06897 45.6889 5.3858 50.6751 10.8621L46.5372 10.3448V12.4138Z" fill="white"/>
</svg>
