<svg width="20" height="15" viewBox="0 0 20 15" fill="none" xmlns="http://www.w3.org/2000/svg">
<path d="M18.3333 0H1.66668C0.747461 0 0 0.747461 0 1.66668V13.3334C0 14.2525 0.747461 15 1.66668 15H18.3334C19.2525 15 20 14.2525 20 13.3333V1.66668C20 0.747461 19.2525 0 18.3333 0ZM1.66668 0.83332H18.3334C18.379 0.83332 18.4184 0.852305 18.462 0.859375L10.4427 7.3702C10.1717 7.54148 9.78434 7.51383 9.58699 7.39219L1.5377 0.859492C1.58141 0.852344 1.62094 0.83332 1.66668 0.83332ZM19.1667 13.3333C19.1667 13.7927 18.7927 14.1666 18.3334 14.1666H1.66668C1.2073 14.1666 0.833359 13.7927 0.833359 13.3333V1.66668C0.833359 1.57352 0.858242 1.48758 0.886562 1.40387L9.09832 8.06559C9.36891 8.24055 9.68102 8.33332 10 8.33332C10.3076 8.33332 10.6079 8.24746 10.8716 8.0843C10.896 8.07168 10.9192 8.05664 10.9404 8.03914L19.1134 1.40367C19.1418 1.48746 19.1666 1.57344 19.1666 1.66668V13.3333H19.1667Z" fill="#5753C9"/>
</svg>
