<svg width="16" height="29" viewBox="0 0 16 29" fill="none" xmlns="http://www.w3.org/2000/svg">
<path d="M13.6471 0H2.35294C1.72912 0.000696382 1.13104 0.247319 0.689934 0.685761C0.248824 1.1242 0.00070062 1.71866 0 2.33871V26.6613C0.00070062 27.2813 0.248824 27.8758 0.689934 28.3142C1.13104 28.7527 1.72912 28.9993 2.35294 29H13.6471C14.2709 28.9993 14.869 28.7527 15.3101 28.3142C15.7512 27.8758 15.9993 27.2813 16 26.6613V2.33871C15.9993 1.71866 15.7512 1.1242 15.3101 0.685761C14.869 0.247319 14.2709 0.000696382 13.6471 0ZM15.0588 26.6613C15.0584 27.0333 14.9095 27.39 14.6449 27.6531C14.3802 27.9161 14.0214 28.0641 13.6471 28.0645H2.35294C1.97865 28.0641 1.6198 27.9161 1.35514 27.6531C1.09047 27.39 0.941597 27.0333 0.941176 26.6613V2.33871C0.941597 1.96668 1.09047 1.61001 1.35514 1.34694C1.6198 1.08388 1.97865 0.935902 2.35294 0.935484H3.84947L4.24441 2.89819C4.26575 3.00422 4.32339 3.09963 4.40752 3.16818C4.49166 3.23674 4.59709 3.2742 4.70588 3.27419H11.2941C11.4029 3.2742 11.5083 3.23674 11.5925 3.16818C11.6766 3.09963 11.7343 3.00422 11.7556 2.89819L12.1505 0.935484H13.6471C14.0214 0.935902 14.3802 1.08388 14.6449 1.34694C14.9095 1.61001 15.0584 1.96668 15.0588 2.33871V26.6613Z" fill="#5753C9"/>
</svg>
