<svg width="16" height="23" viewBox="0 0 16 23" fill="none" xmlns="http://www.w3.org/2000/svg">
<path d="M15.4495 8.14048L15.4455 8.17202V8.20382C15.4455 10.5057 14.2573 13.3 12.6784 15.938C11.1713 18.456 9.3523 20.7598 8.02604 22.2387C6.35854 20.2066 4.52827 17.7075 3.08912 15.2658C1.59258 12.7268 0.569863 10.333 0.514895 8.60907L0.0151489 8.625L0.514895 8.60906C0.481742 7.56959 0.483569 6.60389 0.746078 5.66049C1.01007 4.71177 1.49437 3.82338 2.1689 3.05682C2.84356 2.29011 3.69273 1.66331 4.66024 1.22162C5.62781 0.779908 6.68943 0.534464 7.77241 0.503374C8.85539 0.472285 9.93202 0.656348 10.9284 1.04199C11.9248 1.42761 12.8157 2.00501 13.542 2.73237C14.2681 3.4596 14.8122 4.31939 15.1404 5.25183C15.4684 6.18409 15.5736 7.16909 15.4495 8.14048Z" stroke="#5753C9"/>
<circle cx="8" cy="8" r="2.5" stroke="#5753C9"/>
</svg>
