<svg width="20" height="20" viewBox="0 0 20 20" fill="none" xmlns="http://www.w3.org/2000/svg">
<path d="M12.7777 0.154572C12.686 0.0579834 12.5603 0 12.43 0H4.62802C3.18835 0 2 1.18362 2 2.62314V17.3767C2 18.8164 3.18835 20 4.62802 20H15.2173C16.657 20 17.8453 18.8164 17.8453 17.3767V5.66177C17.8453 5.53619 17.7874 5.4155 17.7053 5.32364L12.7777 0.154572ZM12.9178 1.70532L16.2174 5.16907H14.0724C13.4348 5.16907 12.9178 4.65698 12.9178 4.01932V1.70532ZM15.2173 19.0338H4.62802C3.7247 19.0338 2.96619 18.2851 2.96619 17.3767V2.62314C2.96619 1.71982 3.71982 0.966187 4.62802 0.966187H11.9516V4.01932C11.9516 5.19318 12.8986 6.13525 14.0724 6.13525H16.8792V17.3767C16.8792 18.2851 16.1255 19.0338 15.2173 19.0338Z" fill="black"/>
<path d="M13.8986 15.7007H5.94696C5.6813 15.7007 5.46387 15.918 5.46387 16.1838C5.46387 16.4494 5.6813 16.6669 5.94696 16.6669H13.9035C14.1692 16.6669 14.3866 16.4494 14.3866 16.1838C14.3866 15.918 14.1692 15.7007 13.8986 15.7007Z" fill="black"/>
<path d="M9.56993 13.9663C9.66179 14.0629 9.78737 14.1209 9.92256 14.1209C10.0579 14.1209 10.1835 14.0629 10.2752 13.9663L13.1062 10.9277C13.2897 10.7344 13.2752 10.4252 13.082 10.2466C12.8887 10.063 12.5796 10.0773 12.4009 10.2707L10.4057 12.4107V7.13544C10.4057 6.86963 10.1882 6.65234 9.92256 6.65234C9.65691 6.65234 9.43947 6.86963 9.43947 7.13544V12.4107L7.44911 10.2707C7.26555 10.0775 6.96114 10.063 6.76796 10.2466C6.57478 10.4301 6.56029 10.7345 6.74385 10.9277L9.56993 13.9663Z" fill="black"/>
</svg>
