<svg width="62" height="42" viewBox="0 0 62 42" fill="none" xmlns="http://www.w3.org/2000/svg">
<path d="M1 4.99997C1 2.79083 2.79086 0.999969 5 0.999969H57C59.2091 0.999969 61 2.79083 61 4.99997V37C61 39.2091 59.2091 41 57 41H5C2.79086 41 1 39.2091 1 37V4.99997Z" stroke="white" stroke-width="2"/>
<path d="M18.3516 19.4754C19.7492 17.9297 20.1818 15.5783 19.446 13.5279C18.7101 11.4775 16.9523 10.1367 15 10.1367C13.0477 10.1367 11.2899 11.4775 10.554 13.5279C9.81816 15.5783 10.2508 17.9297 11.6484 19.4754C9.9935 20.7391 9.00087 22.853 9 25.1153V29.1972C9 30.7001 10.0745 31.9185 11.4 31.9185H18.6C19.9255 31.9185 21 30.7001 21 29.1972V25.1153C20.9991 22.853 20.0065 20.7391 18.3516 19.4754ZM12.6 15.5908C12.6 14.0878 13.6745 12.8695 15 12.8695C16.3255 12.8695 17.4 14.0878 17.4 15.5908C17.4 17.0937 16.3255 18.3121 15 18.3121C13.6745 18.3121 12.6 17.0937 12.6 15.5908ZM11.4 29.1972V25.1153C11.4 22.8609 13.0118 21.0333 15 21.0333C16.9882 21.0333 18.6 22.8609 18.6 25.1153V29.1972H11.4Z" fill="#BB6BD9"/>
<path d="M25.8474 15.8687H51.275C51.7431 15.8687 52.1226 16.3038 52.1226 16.8404C52.1226 17.377 51.7431 17.812 51.275 17.812H25.8474C25.3793 17.812 24.9998 17.377 24.9998 16.8404C24.9998 16.3038 25.3792 15.8687 25.8474 15.8687Z" fill="white"/>
<path d="M37.4751 23.8936H51.6501C51.911 23.8936 52.1226 24.3287 52.1226 24.8653C52.1226 25.4019 51.911 25.8369 51.6501 25.8369H37.4751C37.2141 25.8369 37.0026 25.4019 37.0026 24.8653C37.0026 24.3287 37.2141 23.8936 37.4751 23.8936Z" fill="white"/>
</svg>
