<svg width="18" height="18" viewBox="0 0 18 18" fill="none" xmlns="http://www.w3.org/2000/svg">
<path d="M18 0.5C18 0.223857 17.7761 -2.43811e-07 17.5 -3.70252e-07L13 3.01432e-08C12.7239 -1.38444e-07 12.5 0.223858 12.5 0.5C12.5 0.776142 12.7239 1 13 1L17 1L17 5C17 5.27614 17.2239 5.5 17.5 5.5C17.7761 5.5 18 5.27614 18 5L18 0.5ZM8.85355 9.85355L17.8536 0.853553L17.1464 0.146447L8.14645 9.14645L8.85355 9.85355Z" fill="black"/>
<path d="M10.8998 1.5H4.5C2.29086 1.5 0.5 3.29086 0.5 5.5V13.5C0.5 15.7091 2.29086 17.5 4.5 17.5H12.5C14.7091 17.5 16.5 15.7091 16.5 13.5V7.90005H15.5V13.5C15.5 15.1569 14.1569 16.5 12.5 16.5H4.5C2.84315 16.5 1.5 15.1569 1.5 13.5V5.5C1.5 3.84315 2.84315 2.5 4.5 2.5H10.8998V1.5Z" fill="black"/>
</svg>
