<svg width="43" height="57" viewBox="0 0 43 57" fill="none" xmlns="http://www.w3.org/2000/svg">
<path d="M41.9575 7.19279L21.7702 0.0678814C21.5151 -0.0226271 21.2345 -0.0226271 20.9794 0.0678814L0.792091 7.19279C0.317838 7.36089 0 7.80976 0 8.31307V22.5629C0 41.0037 2.73453 47.7436 20.8402 56.8724C21.0083 56.957 21.1915 57 21.3748 57C21.558 57 21.7413 56.9571 21.9094 56.8724C40.015 47.7436 42.7496 41.0037 42.7496 22.5629V8.31307C42.7496 7.80976 42.4317 7.361 41.9575 7.19279ZM40.3745 22.5629C40.3745 40.2255 38.1225 45.9426 21.3747 54.4811C4.62698 45.9426 2.37494 40.2255 2.37494 22.5629V9.15381L21.3748 2.44749L40.3746 9.15381V22.5629H40.3745Z" fill="#5753C9"/>
<path d="M28.5 33.2505H33.25C33.9064 33.2505 34.4375 32.7193 34.4375 32.063C34.4375 31.4066 33.9064 30.8754 33.25 30.8754H29.6875V22.563C29.6875 21.9066 29.1564 21.3755 28.5 21.3755C27.8436 21.3755 27.3125 21.9066 27.3125 22.563V32.0628C27.3125 32.7193 27.8436 33.2505 28.5 33.2505Z" fill="#5753C9"/>
<path d="M11.875 23.7505H14.2499C14.9063 23.7505 15.4374 23.2194 15.4374 22.563C15.4374 21.9066 14.9063 21.3755 14.2499 21.3755H11.875C9.91049 21.3755 8.3125 22.9735 8.3125 24.9379C8.3125 26.9024 9.91049 28.5004 11.875 28.5004C12.5301 28.5004 13.0625 29.0326 13.0625 29.6879C13.0625 30.3431 12.5302 30.8754 11.875 30.8754H9.50003C8.84364 30.8754 8.3125 31.4066 8.3125 32.063C8.3125 32.7193 8.84364 33.2505 9.50003 33.2505H11.875C13.8394 33.2505 15.4374 31.6525 15.4374 29.688C15.4374 27.7236 13.8394 26.1256 11.875 26.1256C11.2198 26.1256 10.6874 25.5933 10.6874 24.938C10.6876 24.2828 11.2198 23.7505 11.875 23.7505Z" fill="#5753C9"/>
<path d="M17.8125 24.9379C17.8125 26.9024 19.4105 28.5004 21.375 28.5004C22.0301 28.5004 22.5625 29.0326 22.5625 29.6879C22.5625 30.3431 22.0302 30.8754 21.375 30.8754H19C18.3436 30.8754 17.8125 31.4066 17.8125 32.063C17.8125 32.7193 18.3436 33.2505 19 33.2505H21.375C23.3394 33.2505 24.9374 31.6525 24.9374 29.688C24.9374 27.7236 23.3394 26.1256 21.375 26.1256C20.7198 26.1256 20.1874 25.5933 20.1874 24.938C20.1874 24.2829 20.7197 23.7505 21.375 23.7505H23.7499C24.4063 23.7505 24.9374 23.2194 24.9374 22.563C24.9374 21.9066 24.4063 21.3755 23.7499 21.3755H21.375C19.4105 21.3755 17.8125 22.9735 17.8125 24.9379Z" fill="#5753C9"/>
</svg>
