<svg width="55" height="38" viewBox="0 0 55 38" fill="none" xmlns="http://www.w3.org/2000/svg">
<path d="M1 4.80633C1 2.90897 2.53812 1.37085 4.43548 1.37085H50.5645C52.4619 1.37085 54 2.90897 54 4.80633V33.1934C54 35.0908 52.4619 36.6289 50.5645 36.6289H4.43548C2.53812 36.6289 1 35.0908 1 33.1934V4.80633Z" stroke="#5753C9" stroke-width="2"/>
<path d="M16.2792 18.7867C17.5189 17.6675 17.9028 15.9647 17.25 14.48C16.5972 12.9953 15.0379 12.0244 13.306 12.0244C11.5741 12.0244 10.0148 12.9953 9.36198 14.48C8.70919 15.9647 9.09301 17.6675 10.3328 18.7867C8.86473 19.7018 7.98417 21.2325 7.9834 22.8707V25.8265C7.9834 26.9148 8.9366 27.797 10.1124 27.797H16.4995C17.6754 27.797 18.6286 26.9148 18.6286 25.8265V22.8707C18.6278 21.2325 17.7472 19.7018 16.2792 18.7867ZM11.1769 15.9738C11.1769 14.8855 12.1301 14.0032 13.306 14.0032C14.4818 14.0032 15.435 14.8855 15.435 15.9738C15.435 17.0621 14.4818 17.9443 13.306 17.9443C12.1301 17.9443 11.1769 17.0621 11.1769 15.9738ZM10.1124 25.8265V22.8707C10.1124 21.2382 11.5422 19.9149 13.306 19.9149C15.0697 19.9149 16.4995 21.2382 16.4995 22.8707V25.8265H10.1124Z" fill="#5753C9"/>
<path d="M22.9297 14.448H45.4864C45.9016 14.448 46.2383 14.8339 46.2383 15.31C46.2383 15.786 45.9016 16.1719 45.4864 16.1719H22.9297C22.5144 16.1719 22.1778 15.786 22.1778 15.31C22.1778 14.8339 22.5144 14.448 22.9297 14.448Z" fill="#5753C9"/>
<path d="M33.2445 21.5669H45.8191C46.0506 21.5669 46.2383 21.9528 46.2383 22.4289C46.2383 22.9049 46.0506 23.2908 45.8191 23.2908H33.2445C33.0131 23.2908 32.8254 22.9049 32.8254 22.4289C32.8254 21.9528 33.013 21.5669 33.2445 21.5669Z" fill="#5753C9"/>
</svg>
