<svg width="60" height="60" viewBox="0 0 60 60" fill="none" xmlns="http://www.w3.org/2000/svg">
<path d="M31.3527 28.1609L31.6668 28.301L31.9099 28.0579L42.6559 17.3129C42.6559 17.3129 42.6559 17.3129 42.6559 17.3129C42.8511 17.1177 43.1675 17.1177 43.3628 17.3128C43.5579 17.508 43.5579 17.8245 43.3628 18.0197C43.3628 18.0197 43.3628 18.0198 43.3628 18.0198L32.6268 28.7557L32.3747 29.0078L32.5309 29.3284C32.9938 30.2781 32.8006 31.4173 32.0503 32.1612L32.0487 32.1628C31.301 32.9109 30.1628 33.1064 29.2085 32.6505L29.2085 32.6505C27.965 32.0566 27.4385 30.5671 28.0325 29.3238L28.1849 29.0048L27.9349 28.7547L22.8605 23.6803C22.6759 23.4864 22.6767 23.1811 22.863 22.9883L22.863 22.9882C23.0539 22.7905 23.3686 22.7842 23.5674 22.9734L28.6518 28.0578L28.8949 28.301L29.209 28.1609C29.8911 27.8567 30.6704 27.8567 31.3527 28.1609ZM31.3422 31.4546L31.3422 31.4545C31.9278 30.8688 31.9278 29.9189 31.3419 29.3332L31.3418 29.3331C30.7559 28.7476 29.8063 28.7476 29.2205 29.3335L29.2204 29.3336C28.635 29.9194 28.6349 30.8691 29.2209 31.4549L29.2208 31.455L29.2288 31.4627C29.8176 32.0256 30.7451 32.0256 31.3339 31.4627L31.334 31.4628L31.3419 31.4548L31.3419 31.4548L31.3419 31.4548L31.3419 31.4548L31.3419 31.4548L31.3419 31.4548L31.3419 31.4548L31.3419 31.4548L31.342 31.4548L31.342 31.4548L31.342 31.4548L31.342 31.4548L31.342 31.4548L31.342 31.4548L31.342 31.4548L31.342 31.4548L31.342 31.4547L31.342 31.4547L31.342 31.4547L31.342 31.4547L31.342 31.4547L31.342 31.4547L31.342 31.4547L31.342 31.4547L31.342 31.4547L31.342 31.4547L31.3421 31.4547L31.3421 31.4547L31.3421 31.4547L31.3421 31.4547L31.3421 31.4547L31.3421 31.4547L31.3421 31.4547L31.3421 31.4547L31.3421 31.4546L31.3421 31.4546L31.3421 31.4546L31.3421 31.4546L31.3421 31.4546L31.3421 31.4546L31.3421 31.4546L31.3421 31.4546L31.3421 31.4546L31.3421 31.4546L31.3421 31.4546L31.3422 31.4546L30.9886 31.101L31.3422 31.4546Z" fill="white" stroke="white"/>
<path d="M51.2089 53.7907H44.675V59.9995H42.5088V53.7907H38.8867V51.8676H42.5088V49.1386H38.8867V47.2339H42.5088V33.3328H51.3155C54.038 33.3328 56.1627 34.0471 57.6896 35.4756C59.2284 36.892 59.9978 38.8212 59.9978 41.2632C59.9978 43.754 59.2521 45.6893 57.7607 47.069C56.2692 48.4366 54.1386 49.1264 51.3687 49.1386H44.675V51.8676H51.2089V53.7907ZM44.675 47.2339H51.3155C53.3751 47.2339 54.9731 46.7211 56.1094 45.6954C57.2458 44.6576 57.8139 43.1924 57.8139 41.2998C57.8139 39.4683 57.2576 38.0153 56.1449 36.9408C55.0441 35.8663 53.5231 35.3047 51.5818 35.2558H44.675V47.2339Z" fill="white"/>
<path fill-rule="evenodd" clip-rule="evenodd" d="M31.1094 57.9784C30.7414 57.9928 30.3715 58 30 58C14.536 58 2 45.464 2 30C2 14.536 14.536 2 30 2C44.336 2 56.1555 12.7738 57.8036 26.6664H59.8169C58.1586 11.6667 45.4418 0 30 0C13.4315 0 0 13.4315 0 30C0 46.5685 13.4315 60 30 60C30.3714 60 30.7412 59.9933 31.1094 59.9799V57.9784Z" fill="white"/>
<path d="M30 1.11108V6.66664" stroke="white" stroke-width="2" stroke-linecap="round"/>
<path d="M2.22266 29.9995H7.77821" stroke="white" stroke-width="2" stroke-linecap="round"/>
</svg>
