<svg width="60" height="60" viewBox="0 0 60 60" fill="none" xmlns="http://www.w3.org/2000/svg">
<path d="M3 60H56C58.2091 60 60 58.2091 60 56V40C60 37.7909 58.2091 36 56 36H44V7C43.9956 3.13583 40.8642 0.00440864 37 0H3C1.34315 0 0 1.34315 0 3V57C0 58.6568 1.34315 60 3 60ZM26 48H10C9.44771 48 9 47.5523 9 47V45C9 44.4477 9.44771 44 10 44H26V48ZM58 40V56C58 57.1046 57.1046 58 56 58H30C28.8954 58 28 57.1046 28 56V40C28 38.8954 28.8954 38 30 38H56C57.1046 38 58 38.8954 58 40ZM2 3C2 2.44772 2.44772 2 3 2H37C39.7601 2.00331 41.9967 4.23995 42 7V36H30C27.7909 36 26 37.7909 26 40V42H10C8.34314 42 7 43.3431 7 45V47C7 48.6568 8.34314 50 10 50H26V56C26.0041 56.7043 26.1961 57.3946 26.556 58H3C2.44772 58 2 57.5523 2 57V3Z" fill="white"/>
<path d="M36.6774 47.2926C37.5207 46.4851 37.7818 45.2566 37.3378 44.1854C36.8937 43.1143 35.833 42.4138 34.6549 42.4138C33.4768 42.4138 32.416 43.1143 31.972 44.1854C31.5279 45.2566 31.789 46.4851 32.6324 47.2926C31.6337 47.9528 31.0347 49.0571 31.0342 50.239V52.3715C31.0342 53.1566 31.6826 53.7931 32.4825 53.7931H36.8273C37.6271 53.7931 38.2756 53.1566 38.2756 52.3715V50.239C38.275 49.0571 37.676 47.9528 36.6774 47.2926ZM33.2066 45.2631C33.2066 44.478 33.855 43.8415 34.6549 43.8415C35.4547 43.8415 36.1031 44.478 36.1031 45.2631C36.1031 46.0483 35.4547 46.6848 34.6549 46.6848C33.855 46.6848 33.2066 46.0483 33.2066 45.2631ZM32.4825 52.3715V50.239C32.4825 49.0612 33.4551 48.1065 34.6549 48.1065C35.8547 48.1065 36.8273 49.0612 36.8273 50.239V52.3715H32.4825Z" fill="white"/>
<path d="M54.4141 44.4827H43.4141C42.8618 44.4827 42.4141 44.9304 42.4141 45.4827C42.4141 46.0349 42.8618 46.4827 43.4141 46.4827H54.4141C54.9664 46.4827 55.4141 46.0349 55.4141 45.4827C55.4141 44.9304 54.9664 44.4827 54.4141 44.4827Z" fill="white"/>
<path d="M48.4141 49.6553H43.4141C42.8618 49.6553 42.4141 50.103 42.4141 50.6553C42.4141 51.2076 42.8618 51.6553 43.4141 51.6553H48.4141C48.9664 51.6553 49.4141 51.2076 49.4141 50.6553C49.4141 50.103 48.9664 49.6553 48.4141 49.6553Z" fill="white"/>
<path d="M33.3077 18.2766C33.2499 18.2254 33.1921 18.2254 33.1343 18.2254C33.6546 17.047 33.5968 15.766 32.903 14.6901C32.7295 14.4339 32.4404 13.9215 31.6309 13.7166C31.4574 13.6654 31.3418 13.6654 31.1683 13.6654C30.7635 13.6654 30.4165 13.7678 30.0697 13.9728C29.8962 14.0752 29.7805 14.1777 29.7227 14.2289C29.4914 14.4339 29.2601 14.5876 29.0866 14.7925C28.6241 15.1512 28.1036 15.6123 27.5832 16.0735L27.5254 16.0222C27.0628 15.5099 26.4846 15.2025 25.7907 15.0487C25.9642 14.7925 26.0798 14.5364 26.1376 14.3314C26.6002 13.0505 26.0798 11.8209 24.8077 11.206C24.6921 11.1548 24.5764 11.1035 24.4608 11.0523C24.4608 10.8473 24.4608 10.6424 24.3451 10.4374C24.1138 9.87384 23.5934 9.51524 22.8995 9.3615C22.726 9.3103 22.5526 9.3103 22.3791 9.3103C22.2057 9.3103 22.0322 9.3103 21.8587 9.3615H21.8009C21.107 9.51524 20.5867 9.87384 20.3553 10.3863C20.2397 10.5912 20.2397 10.7961 20.2397 11.0523C20.124 11.1035 20.0084 11.1548 19.8927 11.206C18.6206 11.8721 18.1002 13.0505 18.505 14.3826C18.5628 14.6389 18.6785 14.8438 18.8519 15.0999C18.158 15.2537 17.5798 15.6123 17.1172 16.0735C17.1172 16.0735 17.1172 16.1247 17.0594 16.1247C16.4811 15.6635 15.9608 15.2537 15.556 14.8438C15.3247 14.6389 15.0934 14.4851 14.8621 14.2802C14.8043 14.2289 14.6886 14.1264 14.5152 14.024C14.2261 13.819 13.8213 13.7166 13.4165 13.7166C13.243 13.7166 13.1274 13.7166 12.954 13.7678C12.2023 13.9215 11.8553 14.4851 11.6818 14.7413C10.988 15.8173 10.9302 17.1494 11.4505 18.2766C11.3927 18.2766 11.3349 18.3278 11.2771 18.3278C10.5832 18.6865 10.2941 19.3013 10.3519 20.1723C10.3519 20.4285 10.4097 20.6847 10.5254 20.8896C10.6989 21.402 11.0458 21.8632 11.4505 22.2218C11.5662 22.3242 11.6818 22.4267 11.7975 22.478C11.5662 22.9391 11.5662 23.4515 11.8553 23.9126C11.9131 24.0151 12.0288 24.1687 12.0866 24.2712C12.2601 24.4762 12.4914 24.6811 12.7227 24.8861C13.243 25.2448 13.8791 25.4497 14.5152 25.5522C14.573 25.5522 14.6308 25.5522 14.6308 25.5522C14.7464 25.8083 14.9199 26.0133 15.1512 26.167C15.556 26.4744 16.0764 26.6793 16.4811 26.7306C16.4811 27.0893 16.5968 27.4479 16.8281 27.7553C17.4064 28.4213 18.2158 28.8825 19.0254 28.9849C19.1411 29.1899 19.2567 29.3436 19.4301 29.4974C20.9913 30.8294 21.5696 31.0344 22.2057 31.0344C22.8417 31.0344 23.42 30.8294 24.9812 29.4974C25.1547 29.3436 25.2703 29.1899 25.386 28.9849C26.1955 28.8313 27.005 28.4213 27.5832 27.7553C27.8145 27.4479 27.988 27.0893 27.9302 26.7306C28.3928 26.6281 28.8553 26.4744 29.2601 26.167C29.4914 26.0133 29.6649 25.8083 29.7805 25.5522C29.8384 25.5522 29.8962 25.5522 29.8962 25.5522C30.5322 25.5009 31.1683 25.2448 31.6887 24.8861C31.9199 24.7323 32.1512 24.5274 32.3247 24.2712C32.4404 24.1687 32.4982 24.0151 32.556 23.9126C32.8452 23.4002 32.8452 22.8878 32.6138 22.478C32.7295 22.3755 32.8452 22.3242 32.9608 22.2218C33.3655 21.8632 33.7125 21.402 33.8859 20.8896C33.9438 20.6335 34.0016 20.4285 34.0594 20.1723C34.2907 19.2501 34.0016 18.6352 33.3077 18.2766ZM21.9744 10.8473C22.0322 10.7961 22.1479 10.7961 22.2057 10.7449C22.2635 10.7449 22.2635 10.7449 22.3213 10.7449C22.3791 10.7449 22.3791 10.7449 22.4369 10.7449C22.4948 10.7449 22.6104 10.7961 22.6682 10.8473C22.726 10.8986 22.726 10.8986 22.726 10.9498L22.3213 11.5134L21.9744 10.9498C21.9166 10.8986 21.9744 10.8473 21.9744 10.8473ZM20.7601 12.4357C20.8757 12.3844 20.9913 12.3332 21.107 12.2819C21.2226 12.2307 21.2805 12.2307 21.2805 12.2307L21.3383 12.2819L22.3213 13.6141L23.3043 12.2819L23.3621 12.2307C23.3621 12.2307 23.42 12.2307 23.5356 12.2819C23.6513 12.3332 23.7669 12.3332 23.8826 12.4357C24.2873 12.6406 24.7499 13.0505 24.4608 13.819C24.3451 14.1264 24.1138 14.5364 23.7091 14.9975C23.7091 14.9975 23.7091 14.9975 23.6513 15.0487H23.2465H22.2057H21.1648H20.7601C20.7601 15.0487 20.7601 15.0487 20.7023 14.9975C20.2975 14.5364 20.0662 14.1264 19.9506 13.819C19.8927 13.0505 20.3553 12.6406 20.7601 12.4357ZM32.4982 20.0186C32.4982 20.1211 32.4404 20.2748 32.4404 20.3773C32.3247 20.6335 32.1512 20.8896 31.9777 21.0434C31.6309 21.3508 31.1104 21.5557 30.59 21.5557C30.0118 21.6582 29.5492 21.6582 29.0288 21.6582H28.971C28.9131 21.6582 28.8553 21.6582 28.7975 21.6582C28.7397 21.6582 28.6241 21.6582 28.6241 21.7094C28.5662 21.8119 28.6819 21.9656 28.7397 22.0168C28.9709 22.1706 29.3179 22.273 29.5492 22.4267C30.0697 22.6317 30.6478 22.8366 31.1104 23.0928C31.1683 23.1441 31.2261 23.1441 31.1683 23.1952C31.1104 23.2465 31.1104 23.2977 31.0526 23.4002C30.937 23.5027 30.8791 23.6052 30.7635 23.7077C30.4743 23.9126 30.1853 24.0151 29.8384 24.0663C29.7805 24.0663 29.6649 24.0663 29.607 24.0663C29.1444 24.0663 28.6819 23.9126 28.2193 23.7077C27.9302 23.6052 27.641 23.4515 27.4097 23.349C27.3519 23.2977 27.1784 23.1952 27.0628 23.1952C27.005 23.1952 27.005 23.1952 26.9472 23.2465C26.8894 23.349 26.8894 23.5027 27.005 23.6052C27.1784 23.8613 27.4675 24.1175 27.6989 24.3225C27.9302 24.5787 28.1036 24.7836 28.335 24.9886C28.0458 25.1935 27.5832 25.296 27.1784 25.296C27.1206 25.296 27.005 25.296 26.9472 25.296C26.4846 25.2448 26.0798 24.9885 25.8485 24.6811C25.7328 24.5274 25.675 24.3737 25.5594 24.22C25.4438 24.0151 25.2125 23.9126 24.9812 23.9126C24.8655 23.9126 24.7499 23.9638 24.6342 24.0151C24.1716 24.3225 23.7091 24.7836 23.7091 24.7836C24.1138 25.091 25.5016 26.3207 26.3689 26.833C25.9642 27.2942 25.5016 27.4991 25.039 27.4991C24.6342 27.4991 24.1716 27.2942 23.7091 26.9355C23.5356 26.7818 23.3621 26.6281 23.2465 26.6281C23.1887 26.6281 23.1887 26.6281 23.1308 26.6793C23.0152 26.7818 23.1308 27.1917 23.1887 27.2942C23.3043 27.5503 23.8826 28.3189 23.9404 28.3701C23.9404 28.3701 22.6104 29.4974 22.3213 29.4974C22.0322 29.4974 20.7023 28.3701 20.7023 28.3701C20.7601 28.2677 21.3383 27.4991 21.454 27.2942C21.5118 27.1917 21.6274 26.7818 21.5118 26.6793C21.454 26.6281 21.454 26.6281 21.3961 26.6281C21.2226 26.6281 21.107 26.7818 20.9335 26.9355C20.471 27.2942 20.0662 27.4991 19.6036 27.4991C19.1411 27.4991 18.6785 27.2429 18.2737 26.833C19.1411 26.2694 20.5288 25.091 20.9335 24.7836C20.9335 24.7836 20.4132 24.3225 20.0084 24.0151C19.8927 23.9638 19.7771 23.9126 19.6614 23.9126C19.4301 23.9126 19.1989 24.0151 19.0833 24.22C18.9676 24.3737 18.9098 24.5274 18.7941 24.6811C18.5628 24.9885 18.158 25.2448 17.7533 25.2448C17.6955 25.2448 17.5798 25.2448 17.522 25.2448C17.1172 25.2448 16.6546 25.1423 16.3655 24.9373C16.5968 24.7323 16.8281 24.4762 17.0016 24.2712C17.2329 24.0151 17.4642 23.8101 17.6955 23.5539C17.7533 23.4515 17.8111 23.2977 17.7533 23.1952C17.7533 23.1441 17.6955 23.1441 17.6377 23.1441C17.522 23.1441 17.4064 23.2465 17.2907 23.2977C17.0016 23.4002 16.7124 23.5539 16.4233 23.6564C15.9608 23.8613 15.556 24.0151 15.0356 24.0151C14.9777 24.0151 14.8621 24.0151 14.8043 24.0151C14.4574 23.9638 14.1683 23.8613 13.8791 23.6564C13.7635 23.5539 13.6478 23.4515 13.59 23.349C13.5322 23.2977 13.4743 23.2465 13.4743 23.1441C13.4165 23.0928 13.4743 23.0416 13.5322 23.0416C13.9948 22.7854 14.573 22.5804 15.0934 22.3755C15.3825 22.273 15.6717 22.1706 15.9608 21.9656C16.0764 21.9144 16.192 21.7606 16.0764 21.6582C16.0186 21.6582 15.9608 21.6582 15.8451 21.6582C15.7873 21.6582 15.6717 21.6582 15.6717 21.6582H15.6138C15.0934 21.6582 14.6308 21.6582 14.1104 21.607C13.59 21.607 13.0696 21.402 12.7227 21.0946C12.4914 20.8896 12.3179 20.6847 12.2601 20.4285C12.2023 20.3261 12.2023 20.1723 12.1444 20.0699C12.1444 19.9674 12.0866 19.7112 12.2023 19.66H12.2601C12.3757 19.66 12.4914 19.66 12.5492 19.7112C12.7227 19.7112 12.8383 19.7112 13.0118 19.7625C13.3587 19.7625 13.7057 19.8137 14.0526 19.8649C14.3996 19.8649 14.7464 19.9161 15.0934 19.9161H15.1512C15.2669 19.9161 15.3247 19.9161 15.4404 19.8137C15.556 19.7112 15.556 19.6087 15.4404 19.5575C14.9199 19.3013 14.3996 19.0964 13.937 18.7377C12.954 17.9692 12.5492 16.5345 13.243 15.5099C13.243 15.4586 13.3587 15.2537 13.4165 15.2537C13.4165 15.2537 13.4165 15.2537 13.4743 15.3049C13.5322 15.3561 13.59 15.4074 13.6478 15.4586C13.8791 15.6123 14.1104 15.8173 14.2839 15.971C15.4982 16.9957 16.7124 17.9692 17.9267 18.9939C17.9845 19.0451 18.1002 19.1476 18.158 19.1989C17.6377 19.6087 17.5798 20.3773 17.9267 20.8896C18.158 21.2483 18.6206 21.402 19.0833 21.402C19.2567 21.402 19.4301 21.402 19.6036 21.2996C20.7601 20.9409 20.8179 19.4038 19.7192 18.9939C19.5458 18.9427 19.4301 18.8915 19.2567 18.8915C19.1411 18.8915 19.0254 18.8915 19.0833 18.789C19.1989 18.5328 19.4301 18.2766 19.6036 18.0204C19.3723 17.9692 19.1411 17.918 18.8519 17.918H18.7941C18.6785 17.918 18.5628 17.918 18.4472 17.9692C18.3893 17.9692 18.2737 18.0204 18.2158 18.0716C18.158 18.1229 18.1002 18.1741 18.0424 18.1741C17.8689 17.3031 18.6206 16.5345 19.6036 16.5345C19.6614 16.5345 19.7192 16.5345 19.7771 16.5345C19.9506 16.5345 20.1819 16.5858 20.3553 16.5858C20.6445 16.5858 20.8757 16.637 21.1648 16.6883C21.2226 16.6883 21.2805 16.6883 21.3961 16.6883C21.5696 16.6883 21.8009 16.7395 21.9744 16.7395C21.6274 17.2519 21.5696 17.918 21.8587 18.4816C21.9744 18.7377 22.1479 18.9939 22.2635 19.2501C22.3791 18.9939 22.5526 18.7377 22.6682 18.4816C22.9574 17.918 22.9574 17.2519 22.5526 16.7395C22.726 16.7395 22.9574 16.6883 23.1308 16.6883C23.1887 16.6883 23.3043 16.6883 23.3621 16.6883C23.6513 16.6883 23.8826 16.637 24.1716 16.5858C24.3451 16.5858 24.5764 16.5345 24.7499 16.5345C24.8077 16.5345 24.8655 16.5345 24.9234 16.5345C25.9063 16.5345 26.6581 17.3031 26.4846 18.1741C26.4268 18.1741 26.3689 18.0716 26.3111 18.0716C26.2533 18.0204 26.1376 18.0204 26.0798 17.9692C25.9642 17.918 25.8485 17.918 25.7328 17.918H25.675C25.4438 17.918 25.1547 17.9692 24.9234 18.0204C25.0968 18.2766 25.3282 18.5328 25.4438 18.789C25.5016 18.9427 25.4438 18.8915 25.2703 18.8915C25.0968 18.8915 24.9812 18.9427 24.8077 18.9939C23.7091 19.4038 23.7669 20.9922 24.9234 21.2996C25.0968 21.3508 25.2703 21.402 25.4438 21.402C25.9063 21.402 26.3111 21.2483 26.6002 20.8896C26.9472 20.3773 26.8894 19.6087 26.3689 19.1989C26.4268 19.1476 26.5424 19.0451 26.6002 18.9939C27.8145 17.9692 29.0288 16.9445 30.2431 15.971C30.4743 15.8173 30.7057 15.6123 30.8791 15.4586C30.937 15.4074 30.9948 15.3561 31.0526 15.3049C31.0526 15.3049 31.0526 15.2537 31.1104 15.2537C31.1683 15.2537 31.2839 15.4586 31.2839 15.5099C31.9777 16.5345 31.5731 17.9692 30.59 18.7377C30.1275 19.0964 29.607 19.2501 29.0866 19.5575C28.971 19.6087 29.0288 19.7112 29.0866 19.8137C29.1444 19.8649 29.2601 19.9161 29.3757 19.9161H29.4336C29.7805 19.9161 30.1275 19.8649 30.4743 19.8649C30.8213 19.8137 31.1683 19.8137 31.5152 19.7625C31.6887 19.7625 31.8043 19.7625 31.9777 19.7112C32.0356 19.7112 32.2091 19.66 32.2669 19.66C32.3247 19.66 32.3247 19.66 32.3247 19.66C32.556 19.66 32.4982 19.9161 32.4982 20.0186Z" fill="white"/>
</svg>
