<svg width="48" height="60" viewBox="0 0 48 60" fill="none" xmlns="http://www.w3.org/2000/svg">
<path d="M37.7419 40.6453C35.8279 40.6453 33.9568 41.2128 32.3654 42.2762C30.7739 43.3396 29.5336 44.851 28.8011 46.6193C28.0686 48.3876 27.877 50.3334 28.2504 52.2107C28.6238 54.0879 29.5455 55.8122 30.8989 57.1657C32.2523 58.5191 33.9767 59.4408 35.8539 59.8142C37.7311 60.1876 39.6769 59.9959 41.4453 59.2635C43.2136 58.531 44.725 57.2906 45.7883 55.6992C46.8517 54.1077 47.4193 52.2367 47.4193 50.3227C47.4164 47.757 46.3959 45.2972 44.5816 43.4829C42.7674 41.6687 40.3076 40.6482 37.7419 40.6453ZM37.7419 58.2406C36.1759 58.2406 34.645 57.7762 33.3429 56.9062C32.0408 56.0361 31.026 54.7995 30.4267 53.3527C29.8274 51.9059 29.6706 50.3139 29.9761 48.778C30.2816 47.2421 31.0357 45.8312 32.1431 44.7239C33.2504 43.6166 34.6612 42.8624 36.1972 42.5569C37.7331 42.2514 39.3251 42.4082 40.7719 43.0075C42.2187 43.6068 43.4553 44.6216 44.3254 45.9237C45.1954 47.2258 45.6598 48.7567 45.6598 50.3227C45.6574 52.4219 44.8224 54.4345 43.3381 55.9189C41.8537 57.4033 39.8411 58.2382 37.7419 58.2406Z" fill="white"/>
<path d="M41.5189 46.1815L35.2395 52.4608L34.0753 50.7144C34.0115 50.6176 33.9292 50.5344 33.8331 50.4695C33.737 50.4046 33.6291 50.3593 33.5155 50.3363C33.4019 50.3133 33.2848 50.3129 33.1711 50.3353C33.0573 50.3576 32.9491 50.4023 32.8526 50.4666C32.7562 50.5309 32.6734 50.6136 32.609 50.71C32.5447 50.8064 32.5 50.9146 32.4776 51.0284C32.4551 51.1421 32.4554 51.2592 32.4784 51.3728C32.5013 51.4864 32.5465 51.5944 32.6113 51.6905L34.3709 54.3298C34.4431 54.4381 34.5384 54.529 34.65 54.596C34.7616 54.663 34.8867 54.7044 35.0162 54.7172C35.0451 54.7201 35.074 54.7215 35.1028 54.7215C35.2184 54.7215 35.3328 54.6988 35.4395 54.6545C35.5463 54.6103 35.6432 54.5455 35.7249 54.4638L42.7631 47.4257C42.9281 47.2607 43.0207 47.037 43.0207 46.8036C43.0207 46.5703 42.9281 46.3465 42.7631 46.1815C42.5981 46.0165 42.3743 45.9238 42.141 45.9238C41.9076 45.9238 41.6838 46.0165 41.5189 46.1815Z" fill="white"/>
<path d="M34.3052 22.8101H8.00084C7.51662 22.8101 7.12402 23.2027 7.12402 23.6869C7.12402 24.1711 7.51662 24.5637 8.00084 24.5637H34.3052C34.7894 24.5637 35.182 24.1711 35.182 23.6869C35.182 23.2027 34.7895 22.8101 34.3052 22.8101Z" fill="white"/>
<path d="M34.3052 15.7957H8.00084C7.51662 15.7957 7.12402 16.1882 7.12402 16.6725C7.12402 17.1567 7.51662 17.5493 8.00084 17.5493H34.3052C34.7894 17.5493 35.182 17.1567 35.182 16.6725C35.182 16.1882 34.7895 15.7957 34.3052 15.7957Z" fill="white"/>
<path d="M34.3052 29.8247H8.00084C7.51662 29.8247 7.12402 30.2173 7.12402 30.7015C7.12402 31.1857 7.51662 31.5783 8.00084 31.5783H34.3052C34.7894 31.5783 35.182 31.1857 35.182 30.7015C35.182 30.2173 34.7895 29.8247 34.3052 29.8247Z" fill="white"/>
<path d="M26.9411 36.7742H7.65123C7.16701 36.7742 6.77441 37.1668 6.77441 37.651C6.77441 38.1352 7.16701 38.5278 7.65123 38.5278H26.9411C27.4253 38.5278 27.8179 38.1352 27.8179 37.651C27.8179 37.1668 27.4254 36.7742 26.9411 36.7742Z" fill="white"/>
<path fill-rule="evenodd" clip-rule="evenodd" d="M31.1971 0.176781C31.3008 0.250762 41.8551 10.8061 41.9264 10.9072C41.9436 10.9316 41.9591 10.9416 41.9732 10.9533C42.1515 11.1023 42.0951 11.5324 42.0877 45H40.3334V12.2884H30.6884C30.2042 12.2884 29.8116 11.8958 29.8116 11.4116V1.76666H4.38406C2.93359 1.76666 1.75362 2.94663 1.75362 4.3971V51.745C1.75362 53.1954 2.93359 54.3754 4.38406 54.3754H30V56.129H4.38406C1.96669 56.129 0 54.1623 0 51.745V4.3971C0 1.97973 1.96669 0.0130365 4.38406 0.0130365C30.4873 0.0130365 30.929 -0.0577251 31.1429 0.130472C31.1587 0.144438 31.1733 0.159829 31.1971 0.176781ZM31.5653 10.5348H39.0935L31.5653 3.00658V10.5348Z" fill="white"/>
</svg>
