<svg width="60" height="44" viewBox="0 0 60 44" fill="none" xmlns="http://www.w3.org/2000/svg">
<path d="M6.36523 28.644H10.3436" stroke="white" stroke-width="2" stroke-miterlimit="10" stroke-linecap="round" stroke-linejoin="round"/>
<path d="M0.751953 10.5205H54.1067" stroke="white" stroke-width="2"/>
<path d="M0.751953 17.2834H54.1067" stroke="white" stroke-width="2"/>
<mask id="path-4-inside-1" fill="white">
<path fill-rule="evenodd" clip-rule="evenodd" d="M2.09297 33.2077C2.11418 33.0889 2.1246 32.9685 2.12411 32.8479L2.00101 2.45686C2.08051 2.27308 2.27589 2.12334 2.52509 2.12273H2.5251L52.2028 2C52.6061 1.99901 52.8151 2.3357 52.7682 2.59794C52.747 2.71667 52.7366 2.83709 52.7371 2.95771L52.7992 18.3003H54.7992L54.7371 2.94961C55.0121 1.40973 53.7973 -0.0039435 52.1979 8.26545e-06L2.52015 0.122733C1.27951 0.125795 0.213998 1.00907 0 2.21186L0.124129 32.856C-0.150928 34.3959 1.06374 35.8095 2.66317 35.8056L38.1922 35.7178V33.7178L2.65823 33.8056C2.25508 33.8066 2.04612 33.47 2.09297 33.2077Z"/>
</mask>
<path fill-rule="evenodd" clip-rule="evenodd" d="M2.09297 33.2077C2.11418 33.0889 2.1246 32.9685 2.12411 32.8479L2.00101 2.45686C2.08051 2.27308 2.27589 2.12334 2.52509 2.12273H2.5251L52.2028 2C52.6061 1.99901 52.8151 2.3357 52.7682 2.59794C52.747 2.71667 52.7366 2.83709 52.7371 2.95771L52.7992 18.3003H54.7992L54.7371 2.94961C55.0121 1.40973 53.7973 -0.0039435 52.1979 8.26545e-06L2.52015 0.122733C1.27951 0.125795 0.213998 1.00907 0 2.21186L0.124129 32.856C-0.150928 34.3959 1.06374 35.8095 2.66317 35.8056L38.1922 35.7178V33.7178L2.65823 33.8056C2.25508 33.8066 2.04612 33.47 2.09297 33.2077Z" fill="white"/>
<path d="M2.12411 32.8479L0.124129 32.856L0.124129 32.856L2.12411 32.8479ZM2.09297 33.2077L4.0618 33.5594L4.0618 33.5594L2.09297 33.2077ZM2.00101 2.45686L0.165393 1.66281C0.0558696 1.916 -9.2248e-05 2.1891 0.00102516 2.46496L2.00101 2.45686ZM2.52509 2.12273V0.122721L2.52016 0.122733L2.52509 2.12273ZM2.5251 2.12273V4.12273L2.53004 4.12272L2.5251 2.12273ZM52.2028 2L52.2078 4L52.2028 2ZM52.7682 2.59794L54.7371 2.94962V2.94961L52.7682 2.59794ZM52.7371 2.95771L54.7371 2.94961V2.94961L52.7371 2.95771ZM52.7992 18.3003L50.7992 18.3084C50.8036 19.4098 51.6978 20.3003 52.7992 20.3003V18.3003ZM54.7992 18.3003V20.3003C55.331 20.3003 55.841 20.0885 56.2163 19.7116C56.5916 19.3348 56.8013 18.824 56.7992 18.2922L54.7992 18.3003ZM54.7371 2.94961L52.7682 2.59793C52.747 2.71667 52.7366 2.83709 52.7371 2.95771L54.7371 2.94961ZM52.1979 8.26545e-06L52.2028 2L52.1979 8.26545e-06ZM2.52015 0.122733L2.52509 2.12273H2.5251L2.52015 0.122733ZM0 2.21186L-1.96908 1.86152C-1.99013 1.97983 -2.00047 2.09979 -1.99998 2.21996L0 2.21186ZM0.124129 32.856L2.09297 33.2077C2.11418 33.0889 2.1246 32.9685 2.12411 32.8479L0.124129 32.856ZM2.66317 35.8056L2.66808 37.8056H2.66812L2.66317 35.8056ZM38.1922 35.7178L38.1971 37.7178C39.2998 37.715 40.1922 36.8204 40.1922 35.7178H38.1922ZM38.1922 33.7178H40.1922C40.1922 33.1865 39.9808 32.677 39.6046 32.3018C39.2285 31.9266 38.7185 31.7165 38.1872 31.7178L38.1922 33.7178ZM2.65823 33.8056L2.66313 35.8056H2.66317L2.65823 33.8056ZM0.124129 32.856H0.124129L4.0618 33.5594C4.10422 33.3219 4.12507 33.081 4.1241 32.8398L0.124129 32.856ZM0.00102516 2.46496L0.124129 32.856L4.1241 32.8398L4.00099 2.44876L0.00102516 2.46496ZM2.52016 0.122733C1.44487 0.125386 0.548648 0.776832 0.165393 1.66281L3.83662 3.25091C3.61236 3.76934 3.1069 4.1213 2.53003 4.12272L2.52016 0.122733ZM2.5251 0.122727H2.52509V4.12273H2.5251V0.122727ZM52.1979 8.26467e-06L2.52015 0.122733L2.53004 4.12272L52.2078 4L52.1979 8.26467e-06ZM54.7371 2.94961C54.9986 1.48558 53.8748 -0.00413462 52.1979 8.26564e-06L52.2078 4C51.3374 4.00215 50.6316 3.18582 50.7994 2.24626L54.7371 2.94961ZM54.7371 2.94961V2.94962L50.7994 2.24625C50.757 2.48372 50.7361 2.72455 50.7371 2.9658L54.7371 2.94961ZM54.7992 18.2922L54.7371 2.94961L50.7371 2.9658L50.7992 18.3084L54.7992 18.2922ZM52.7992 20.3003H54.7992V16.3003H52.7992V20.3003ZM52.7371 2.95771L52.7992 18.3084L56.7992 18.2922L56.7371 2.94152L52.7371 2.95771ZM52.2028 2C52.6061 1.99901 52.8151 2.3357 52.7682 2.59793L56.7059 3.30129C57.2092 0.483748 54.9886 -2.00689 52.193 -1.99999L52.2028 2ZM2.5251 2.12273L52.2028 2L52.193 -1.99999L2.51521 -1.87726L2.5251 2.12273ZM1.96908 2.56219C2.00969 2.33395 2.22954 2.12346 2.52509 2.12273L2.51522 -1.87726C0.329475 -1.87187 -1.58169 -0.315813 -1.96908 1.86152L1.96908 2.56219ZM2.12411 32.8479L1.99998 2.20376L-1.99998 2.21996L-1.87585 32.8641L2.12411 32.8479ZM2.65827 33.8056C2.25508 33.8066 2.04612 33.4699 2.09297 33.2077L-1.84471 32.5043C-2.34797 35.3218 -0.127608 37.8124 2.66808 37.8056L2.65827 33.8056ZM38.1872 33.7178L2.65823 33.8056L2.66812 37.8056L38.1971 37.7178L38.1872 33.7178ZM40.1922 35.7178V33.7178H36.1922V35.7178H40.1922ZM2.66317 35.8056L38.1971 35.7178L38.1872 31.7178L2.65329 31.8056L2.66317 35.8056ZM0.12413 32.856C-0.137378 34.32 0.986288 35.8097 2.66313 35.8056L2.65333 31.8056C3.52387 31.8034 4.22962 32.6199 4.0618 33.5594L0.12413 32.856Z" fill="white" mask="url(#path-4-inside-1)"/>
<path d="M53.2394 38.8103H48.2138V43.5858H46.5477V38.8103H43.7617V37.3311H46.5477V35.2321H43.7617V33.7671H46.5477V23.075H53.3214C55.4154 23.075 57.0496 23.6243 58.2241 24.7231C59.4077 25.8125 59.9995 27.2964 59.9995 29.1747C59.9995 31.0905 59.4259 32.5791 58.2787 33.6403C57.1316 34.6921 55.4928 35.2227 53.3623 35.2321H48.2138V37.3311H53.2394V38.8103ZM48.2138 33.7671H53.3214C54.9055 33.7671 56.1346 33.3726 57.0087 32.5838C57.8827 31.7855 58.3197 30.6585 58.3197 29.2029C58.3197 27.7941 57.8918 26.6766 57.036 25.8501C56.1893 25.0237 55.0194 24.5917 53.5262 24.5541H48.2138V33.7671Z" fill="white"/>
</svg>
