<svg width="55" height="57" viewBox="0 0 55 57" fill="none" xmlns="http://www.w3.org/2000/svg">
<path fill-rule="evenodd" clip-rule="evenodd" d="M42.577 11.0764C42.5046 10.9737 31.7865 0.254623 31.6812 0.179494C31.6637 0.166978 31.651 0.1553 31.6392 0.144407C31.6348 0.140317 31.6305 0.136338 31.6261 0.132466C31.468 -0.00670947 31.1871 -0.00642709 20.8092 0.00400649C16.936 0.00790042 11.6565 0.0132083 4.45209 0.0132083C1.99721 0.0132083 0 2.01042 0 4.4653V52.5479C0 55.0028 1.99721 57 4.45209 57H34.0283V55.2191H4.45209C2.97912 55.2191 1.78084 54.0209 1.78084 52.5479V4.4653C1.78084 2.99232 2.97912 1.79404 4.45209 1.79404H30.2742V11.5886C30.2742 12.0804 30.6729 12.4791 31.1646 12.4791H40.9592V20H42.755C42.7579 11.4261 42.7383 11.2183 42.6245 11.1233C42.6219 11.1211 42.6192 11.119 42.6165 11.1168C42.6044 11.1071 42.5912 11.0966 42.577 11.0764ZM39.7001 10.6982H32.0551V3.05321L39.7001 10.6982Z" fill="white"/>
<path d="M33.3035 16H7.87591C7.40783 16 7.02832 16.3795 7.02832 16.8476C7.02832 17.3157 7.40783 17.6952 7.87591 17.6952H33.3035C33.7715 17.6952 34.1511 17.3157 34.1511 16.8476C34.1511 16.3795 33.7717 16 33.3035 16Z" fill="#BB6BD9"/>
<path d="M21.6758 23H7.50082C7.23988 23 7.02832 23.3795 7.02832 23.8476C7.02832 24.3157 7.23988 24.6952 7.50082 24.6952H21.6758C21.9368 24.6952 22.1483 24.3157 22.1483 23.8476C22.1483 23.3795 21.9368 23 21.6758 23Z" fill="#BB6BD9"/>
<path d="M16.8321 30H7.34457C7.16992 30 7.02832 30.3795 7.02832 30.8476C7.02832 31.3157 7.16992 31.6952 7.34457 31.6952H16.8321C17.0067 31.6952 17.1483 31.3157 17.1483 30.8476C17.1483 30.3795 17.0068 30 16.8321 30Z" fill="#BB6BD9"/>
<path d="M40.206 29.2352L40.206 29.2352C38.9267 27.9571 37.2972 27.0869 35.5235 26.7347C33.7497 26.3825 31.9114 26.5641 30.2409 27.2565C28.5703 27.9489 27.1426 29.1211 26.1381 30.6248C25.1336 32.1285 24.5975 33.8962 24.5975 35.7046C24.5975 37.5129 25.1336 39.2807 26.1381 40.7844C27.1426 42.2881 28.5703 43.4602 30.2409 44.1526C31.9114 44.8451 33.7497 45.0266 35.5235 44.6744C37.2972 44.3223 38.9267 43.4521 40.206 42.174L40.206 42.1739C41.9194 40.4569 42.8817 38.1303 42.8817 35.7046C42.8817 33.2789 41.9194 30.9523 40.206 29.2352ZM39.3235 41.2912C38.2188 42.3948 36.8117 43.1461 35.2801 43.4501C33.7484 43.7542 32.1611 43.5973 30.7186 42.9994C29.276 42.4015 28.0432 41.3893 27.1758 40.0909C26.3085 38.7924 25.8455 37.2659 25.8455 35.7044C25.8455 34.1429 26.3085 32.6165 27.1758 31.318C28.0432 30.0195 29.276 29.0074 30.7186 28.4094C32.1611 27.8115 33.7484 27.6547 35.2801 27.9587C36.8117 28.2628 38.2188 29.0141 39.3235 30.1177C40.8029 31.6005 41.6338 33.6097 41.6338 35.7044C41.6338 37.7991 40.8029 39.8083 39.3235 41.2912Z" fill="white" stroke="white" stroke-width="0.1"/>
<path d="M45.3437 43.3053L45.3447 43.3063L45.3447 43.3063L54.0577 52.0196C54.589 52.5509 54.8875 53.2714 54.8875 54.0228C54.8876 54.7741 54.5891 55.4947 54.0579 56.026C53.5266 56.5573 52.806 56.8558 52.0547 56.8559C51.3034 56.8559 50.5828 56.5575 50.0515 56.0262L41.3384 47.3129L41.3384 47.3128L41.3738 47.2775C41.3204 47.2242 41.2781 47.1609 41.2492 47.0912C41.2203 47.0215 41.2054 46.9469 41.2054 46.8714C41.2054 46.796 41.2203 46.7213 41.2492 46.6516C41.2781 46.582 41.3204 46.5187 41.3738 46.4654L45.3437 43.3053ZM45.3437 43.3053C45.2247 43.1927 45.0671 43.1299 44.9033 43.1299C44.7394 43.1299 44.5818 43.1927 44.4628 43.3053L44.4618 43.3063L43.3412 44.4269L42.5072 43.5928C44.5496 41.3205 45.629 38.3425 45.5161 35.288C45.4026 32.2177 44.0934 29.3134 41.8678 27.1952C39.6423 25.0769 36.6769 23.9127 33.6047 23.9509C30.5325 23.9892 27.5969 25.2269 25.4248 27.3999C23.2527 29.5729 22.0162 32.5089 21.9792 35.5811C21.9422 38.6533 23.1076 41.6183 25.2268 43.8429C27.3459 46.0676 30.2507 47.3757 33.3211 47.488C36.3756 47.5997 39.3532 46.519 41.6247 44.4757L42.4587 45.3097L41.3384 46.43L45.3437 43.3053ZM53.2122 55.1804L53.1769 55.145C52.8795 55.4417 52.4765 55.6084 52.0564 55.6084C51.6363 55.6084 51.2333 55.4417 50.9359 55.145L42.6622 46.8713L44.9031 44.6303L53.1768 52.9024C53.474 53.1999 53.6409 53.6032 53.6409 54.0237C53.6409 54.4442 53.474 54.8475 53.1768 55.145L53.2122 55.1804ZM53.2122 55.1804C52.9054 55.4865 52.4898 55.6584 52.0564 55.6584C51.623 55.6584 51.2073 55.4865 50.9006 55.1804L53.2122 52.8671C53.5187 53.174 53.6909 53.59 53.6909 54.0237C53.6909 54.4575 53.5187 54.8735 53.2122 55.1804ZM26.2776 43.1635C24.552 41.4379 23.478 39.1673 23.2387 36.7386C22.9995 34.3099 23.6098 31.8734 24.9656 29.8442C26.3214 27.8151 28.3389 26.3188 30.6742 25.6103C33.0096 24.9019 35.5183 25.0251 37.773 25.959C40.0277 26.8929 41.8888 28.5797 43.0392 30.732C44.1897 32.8842 44.5582 35.3688 44.0821 37.7624C43.606 40.1559 42.3147 42.3104 40.4282 43.8586C38.5417 45.4068 36.1768 46.253 33.7363 46.253C30.9391 46.2516 28.2566 45.1405 26.2776 43.1635Z" fill="white" stroke="white" stroke-width="0.1"/>
</svg>
