<svg width="20" height="20" viewBox="0 0 20 20" fill="none" xmlns="http://www.w3.org/2000/svg">
<g clip-path="url(#clip0)">
<path d="M17.4219 1.56299H15.625V0.625488C15.625 0.280332 15.3452 0.000488281 15 0.000488281C14.6548 0.000488281 14.375 0.280332 14.375 0.625488V1.56299H5.625V0.625488C5.625 0.280332 5.3452 0.000488281 5 0.000488281C4.6548 0.000488281 4.375 0.280332 4.375 0.625488V1.56299H2.57812C1.15652 1.56299 0 2.71951 0 4.14111V17.4224C0 18.844 1.15652 20.0005 2.57812 20.0005H17.4219C18.8435 20.0005 20 18.844 20 17.4224V4.14111C20 2.71951 18.8435 1.56299 17.4219 1.56299ZM2.57812 2.81299H4.375V3.43799C4.375 3.78314 4.6548 4.06299 5 4.06299C5.3452 4.06299 5.625 3.78314 5.625 3.43799V2.81299H14.375V3.43799C14.375 3.78314 14.6548 4.06299 15 4.06299C15.3452 4.06299 15.625 3.78314 15.625 3.43799V2.81299H17.4219C18.1542 2.81299 18.75 3.40877 18.75 4.14111V5.62549H1.25V4.14111C1.25 3.40877 1.84578 2.81299 2.57812 2.81299ZM17.4219 18.7505H2.57812C1.84578 18.7505 1.25 18.1547 1.25 17.4224V6.87549H18.75V17.4224C18.75 18.1547 18.1542 18.7505 17.4219 18.7505Z" fill="white"/>
<path d="M13.7555 8.93355L8.55238 13.3945L7.58766 12.1538C7.5348 12.085 7.4666 12.0259 7.387 11.9798C7.3074 11.9337 7.21795 11.9015 7.12381 11.8852C7.02966 11.8688 6.93268 11.8686 6.83842 11.8845C6.74416 11.9003 6.6545 11.932 6.57458 11.9777C6.49465 12.0234 6.42605 12.0822 6.37271 12.1507C6.31937 12.2192 6.28235 12.296 6.26377 12.3768C6.24519 12.4576 6.24542 12.5408 6.26444 12.6215C6.28347 12.7022 6.32091 12.7789 6.37463 12.8472L7.8326 14.7222C7.89243 14.7991 7.97142 14.8637 8.06389 14.9113C8.15635 14.9589 8.25998 14.9883 8.36731 14.9974C8.3913 14.9995 8.41524 15.0005 8.43911 15.0005C8.53485 15.0005 8.62964 14.9843 8.71809 14.9529C8.80654 14.9215 8.8869 14.8755 8.9546 14.8174L14.7865 9.81746C14.9232 9.70024 15 9.54127 15 9.3755C15 9.20974 14.9232 9.05076 14.7865 8.93355C14.6498 8.81634 14.4643 8.75049 14.271 8.75049C14.0777 8.75049 13.8922 8.81634 13.7555 8.93355Z" fill="white"/>
</g>
<defs>
<clipPath id="clip0">
<rect width="20" height="20" fill="white" transform="translate(0 0.000488281)"/>
</clipPath>
</defs>
</svg>
