<svg width="20" height="22" viewBox="0 0 20 22" fill="none" xmlns="http://www.w3.org/2000/svg">
<path d="M2.06933 2.11379L2.06932 2.1138C1.32256 2.88064 0.95 3.85042 0.95 5.01918V5.95376C0.95 7.19316 1.33144 8.19471 2.09759 8.95324C2.8628 9.71083 3.81971 10.0892 4.9647 10.0892C6.11895 10.0892 7.06717 9.7063 7.80503 8.93902C8.55144 8.16352 8.92414 7.19841 8.92414 6.04722V5.09929C8.92414 3.87774 8.54735 2.88101 7.79099 2.11379C7.04408 1.33789 6.0914 0.950488 4.93707 0.950488C3.78263 0.950488 2.82541 1.33796 2.06933 2.11379ZM6.79181 8.05723L6.79176 8.05729C6.34189 8.57903 5.73476 8.84101 4.9647 8.84101C4.17591 8.84101 3.55012 8.57878 3.08189 8.05673C2.62164 7.53331 2.38998 6.86485 2.38998 6.04722V5.09929C2.38998 4.21854 2.62668 3.51944 3.0954 2.99666C3.57342 2.47374 4.18591 2.21204 4.93707 2.21204C5.69743 2.21204 6.30962 2.47815 6.77831 3.00953L6.77858 3.00984C7.248 3.53331 7.48415 4.20171 7.48415 5.01918V5.99381C7.48415 6.83867 7.2522 7.52503 6.79181 8.05723ZM12.1954 13.0482L12.1952 13.0484C11.4484 13.8152 11.0759 14.785 11.0759 15.9538V16.9284C11.0759 18.15 11.4527 19.1469 12.2092 19.9141L12.2096 19.9145C12.9748 20.6721 13.9318 21.0505 15.0767 21.0505C16.2219 21.0505 17.1699 20.6675 17.9168 19.9006C18.6728 19.1338 19.05 18.164 19.05 16.9951V16.0472C19.05 14.808 18.6686 13.8065 17.9027 13.048C17.1466 12.2813 16.1942 11.8984 15.0491 11.8984C13.9039 11.8984 12.9514 12.2814 12.1954 13.0482ZM16.9177 19.0185L16.9176 19.0186C16.4679 19.5402 15.8562 19.8023 15.0767 19.8023C14.288 19.8023 13.6622 19.5401 13.194 19.018C12.7338 18.4947 12.502 17.8218 12.502 16.9951V16.0072C12.502 15.1353 12.7387 14.4452 13.2073 13.9314C13.6758 13.4176 14.2882 13.16 15.0491 13.16C15.8289 13.16 16.4454 13.4179 16.9044 13.931L16.9044 13.931L16.905 13.9317C17.3736 14.4368 17.61 15.1091 17.61 15.9538V16.9284C17.61 17.7913 17.3779 18.4865 16.9177 19.0185ZM5.46334 19.1472L5.50502 19.1729L5.53163 19.1318L15.3536 3.93818L15.3813 3.89534L15.3379 3.86851L14.3018 3.22766L14.2601 3.20188L14.2335 3.24304L4.41158 18.4366L4.38389 18.4795L4.42727 18.5063L5.46334 19.1472Z" fill="white" stroke="white" stroke-width="0.1"/>
</svg>
