<svg width="15" height="20" viewBox="0 0 15 20" fill="none" xmlns="http://www.w3.org/2000/svg">
<path d="M8.75526 15.3434H4.1127V20H2.57359V15.3434H0V13.9011H2.57359V11.8544H0V10.4258H2.57359V0H8.83095C10.7653 0 12.275 0.535714 13.36 1.60714C14.4533 2.66941 15 4.1163 15 5.9478C15 7.81593 14.4701 9.2674 13.4104 10.3022C12.3507 11.3278 10.8368 11.8452 8.8688 11.8544H4.1127V13.9011H8.75526V15.3434ZM4.1127 10.4258H8.83095C10.2944 10.4258 11.4298 10.0412 12.2372 9.27198C13.0446 8.49359 13.4483 7.39469 13.4483 5.97528C13.4483 4.60165 13.053 3.5119 12.2624 2.70604C11.4802 1.90018 10.3995 1.47894 9.02018 1.44231H4.1127V10.4258Z" fill="white"/>
</svg>
