<svg width="64" height="46" viewBox="0 0 64 46" fill="none" xmlns="http://www.w3.org/2000/svg">
<path d="M6.7168 30.2312H10.9156" stroke="#252525" stroke-width="2" stroke-miterlimit="10" stroke-linecap="round" stroke-linejoin="round"/>
<path d="M0.791016 11.1038H57.1015" stroke="#252525" stroke-width="2"/>
<path d="M0.791016 18.2417H57.1015" stroke="#252525" stroke-width="2"/>
<path fill-rule="evenodd" clip-rule="evenodd" d="M2.09984 35.0279C2.12105 34.9091 2.13148 34.7887 2.13099 34.6681L2.00098 2.57132C2.09597 2.3264 2.34808 2.13031 2.6647 2.12953H2.66471L55.0945 2C55.5863 1.99879 55.8626 2.4138 55.8006 2.76134C55.7794 2.88008 55.7689 3.00049 55.7694 3.12111L55.8349 19.3146H57.835L57.7694 3.11301C58.0597 1.48782 56.7776 -0.00416196 55.0896 8.72335e-06L2.65977 0.129532C1.35039 0.132764 0.225854 1.06497 0 2.33439L0.131005 34.6762C-0.159289 36.3013 1.12267 37.7933 2.81071 37.7891L40.3087 37.6965V35.6965L2.80577 35.7891C2.31401 35.7903 2.03776 35.3754 2.09984 35.0279Z" fill="#252525"/>
<path d="M56.1883 40.9601H50.8843V46.0001H49.1258V40.9601H46.1855V39.399H49.1258V37.1837H46.1855V35.6375H49.1258V24.353H56.2748C58.4848 24.353 60.2096 24.9329 61.4491 26.0925C62.6983 27.2423 63.3228 28.8083 63.3228 30.7907C63.3228 32.8126 62.7175 34.3837 61.5068 35.5037C60.2961 36.6138 58.5665 37.1738 56.318 37.1837H50.8843V39.399H56.1883V40.9601ZM50.8843 35.6375H56.2748C57.9467 35.6375 59.2439 35.2212 60.1664 34.3886C61.0888 33.5461 61.55 32.3567 61.55 30.8204C61.55 29.3336 61.0984 28.1542 60.1952 27.2819C59.3016 26.4097 58.0668 25.9538 56.491 25.9141H50.8843V35.6375Z" fill="#252525"/>
</svg>
