<svg width="13" height="6" viewBox="0 0 13 6" fill="none" xmlns="http://www.w3.org/2000/svg">
<path d="M5.99797 5.99797C5.7978 5.99837 5.60381 5.92865 5.44968 5.80093L0.309485 1.51743C0.134532 1.37202 0.024511 1.16306 0.00362496 0.936524C-0.0172611 0.70999 0.0526987 0.484437 0.198114 0.309485C0.343529 0.134532 0.552488 0.0245114 0.779022 0.00362528C1.00556 -0.0172608 1.23111 0.0526986 1.40606 0.198114L5.99797 4.03613L10.5899 0.335188C10.6775 0.264025 10.7783 0.210883 10.8866 0.178815C10.9948 0.146747 11.1083 0.136387 11.2206 0.148328C11.3328 0.16027 11.4416 0.194278 11.5407 0.248399C11.6397 0.30252 11.7271 0.375687 11.7978 0.463693C11.8763 0.55178 11.9357 0.655121 11.9724 0.76724C12.009 0.87936 12.0221 0.997842 12.0109 1.11526C11.9996 1.23269 11.9642 1.34652 11.9069 1.44963C11.8496 1.55274 11.7717 1.6429 11.6779 1.71447L6.53769 5.85234C6.37913 5.95986 6.1891 6.01114 5.99797 5.99797Z" fill="white"/>
</svg>
