<svg width="13" height="6" viewBox="0 0 13 6" fill="none" xmlns="http://www.w3.org/2000/svg">
<path d="M6.0168 0.001051C6.21697 0.000659496 6.41095 0.0703735 6.56509 0.198092L11.7053 4.48159C11.8802 4.62701 11.9903 4.83597 12.0111 5.0625C12.032 5.28903 11.9621 5.51459 11.8167 5.68954C11.6712 5.86449 11.4623 5.97451 11.2357 5.9954C11.0092 6.01628 10.7837 5.94633 10.6087 5.80091L6.0168 1.96289L1.42488 5.66384C1.33725 5.735 1.23642 5.78814 1.12819 5.82021C1.01995 5.85228 0.90645 5.86264 0.794198 5.8507C0.681946 5.83876 0.57316 5.80475 0.474094 5.75063C0.375028 5.69651 0.287635 5.62334 0.216937 5.53533C0.138481 5.44725 0.0790615 5.34391 0.0424003 5.23179C0.00574009 5.11967 -0.00737008 5.00118 0.00388994 4.88376C0.01515 4.76634 0.050536 4.65251 0.107835 4.5494C0.165134 4.44629 0.243111 4.35612 0.336877 4.28455L5.47708 0.14669C5.63564 0.0391603 5.82567 -0.0121173 6.0168 0.001051Z" fill="white"/>
</svg>
